# xmcd CD database file
#
# Track frame offsets:
#	150
#	34394
#	57740
#	89523
#	115138
#	134622
#	164837
#	199268
#	252957
#	295081
#
# Disc length: 4271 seconds
#
# Revision: 0
# Processed by: cddbd v1.4PL0 Copyright (c) Steve Scherf et al.
# Submitted via: CDex 1.50
#
DISCID=a210ad0a
DTITLE=The Kim Portnoy Jazz Orchestra - Wash Away The Dust Of Everyday Life
DYEAR=1998
DGENRE=Jazz
TTITLE0=King Portnoy Stomp
TTITLE1=Take My Waltz...Please
TTITLE2=We Fell Up
TTITLE3=Haunts Me
TTITLE4=Blues for Anton
TTITLE5=Wash Away The Dust Of Everyday Life
TTITLE6=Open Up Your Heart
TTITLE7=Watch and Wait
TTITLE8=Peek-A-Boo
TTITLE9=Scattered
EXTD=YEAR: 1998
EXTT0=
EXTT1=
EXTT2=
EXTT3=
EXTT4=
EXTT5=
EXTT6=
EXTT7=
EXTT8=
EXTT9=
PLAYORDER=
